<svg width="135" height="36" viewBox="0 0 135 36" fill="none" xmlns="http://www.w3.org/2000/svg">
<rect width="135" height="36" rx="5" fill="#43CD91"/>
<path d="M47.275 13.89H50.74V15.15H47.275V13.89ZM47.155 16.74H50.635V18.015H47.155V16.74ZM50.47 11.535H52.045V19.59H50.47V11.535ZM46.105 12.51H47.785C47.785 13.71 47.54 14.785 47.05 15.735C46.56 16.675 45.84 17.48 44.89 18.15C43.95 18.82 42.805 19.35 41.455 19.74L40.84 18.495C42 18.165 42.97 17.745 43.75 17.235C44.54 16.715 45.13 16.12 45.52 15.45C45.91 14.77 46.105 14.035 46.105 13.245V12.51ZM41.56 12.51H47.2V13.785H41.56V12.51ZM47.56 19.755C48.49 19.755 49.295 19.865 49.975 20.085C50.655 20.305 51.18 20.615 51.55 21.015C51.93 21.415 52.12 21.895 52.12 22.455C52.12 23.015 51.93 23.5 51.55 23.91C51.18 24.31 50.655 24.62 49.975 24.84C49.295 25.06 48.49 25.17 47.56 25.17C46.64 25.17 45.835 25.06 45.145 24.84C44.455 24.62 43.92 24.31 43.54 23.91C43.16 23.5 42.97 23.015 42.97 22.455C42.97 21.895 43.16 21.415 43.54 21.015C43.92 20.615 44.455 20.305 45.145 20.085C45.835 19.865 46.64 19.755 47.56 19.755ZM47.56 20.985C46.94 20.985 46.4 21.045 45.94 21.165C45.49 21.275 45.14 21.44 44.89 21.66C44.65 21.88 44.53 22.145 44.53 22.455C44.53 22.775 44.65 23.045 44.89 23.265C45.14 23.485 45.49 23.655 45.94 23.775C46.4 23.885 46.94 23.94 47.56 23.94C48.18 23.94 48.715 23.885 49.165 23.775C49.615 23.655 49.96 23.485 50.2 23.265C50.45 23.045 50.575 22.775 50.575 22.455C50.575 22.145 50.45 21.88 50.2 21.66C49.96 21.44 49.615 21.275 49.165 21.165C48.715 21.045 48.18 20.985 47.56 20.985ZM64.6738 11.52H66.1738V25.23H64.6738V11.52ZM59.8888 16.35H62.3638V17.625H59.8888V16.35ZM61.9288 11.805H63.3988V24.57H61.9288V11.805ZM57.1288 13.695H58.3138V15.3C58.3138 16.05 58.2488 16.795 58.1188 17.535C57.9988 18.265 57.8088 18.95 57.5488 19.59C57.2988 20.23 56.9788 20.81 56.5888 21.33C56.1988 21.84 55.7438 22.255 55.2238 22.575L54.2638 21.42C54.9238 21.01 55.4638 20.485 55.8838 19.845C56.3038 19.195 56.6138 18.48 56.8138 17.7C57.0238 16.91 57.1288 16.11 57.1288 15.3V13.695ZM57.4588 13.695H58.6438V15.3C58.6438 16.08 58.7438 16.845 58.9438 17.595C59.1438 18.345 59.4488 19.025 59.8588 19.635C60.2788 20.235 60.8088 20.725 61.4488 21.105L60.5188 22.245C59.8288 21.825 59.2588 21.26 58.8088 20.55C58.3588 19.83 58.0188 19.02 57.7888 18.12C57.5688 17.22 57.4588 16.28 57.4588 15.3V13.695ZM54.6988 13.02H60.8938V14.31H54.6988V13.02ZM71.2277 16.14H72.7877V18.705H71.2277V16.14ZM76.1627 16.14H77.7227V18.705H76.1627V16.14ZM68.2877 18.18H80.6777V19.425H68.2877V18.18ZM74.4527 20.325C75.9327 20.325 77.0877 20.535 77.9177 20.955C78.7577 21.375 79.1777 21.98 79.1777 22.77C79.1777 23.55 78.7577 24.155 77.9177 24.585C77.0877 25.015 75.9327 25.23 74.4527 25.23C72.9827 25.23 71.8277 25.015 70.9877 24.585C70.1577 24.155 69.7427 23.55 69.7427 22.77C69.7427 21.98 70.1577 21.375 70.9877 20.955C71.8277 20.535 72.9827 20.325 74.4527 20.325ZM74.4527 21.51C73.7927 21.51 73.2277 21.56 72.7577 21.66C72.2877 21.75 71.9277 21.89 71.6777 22.08C71.4377 22.26 71.3177 22.49 71.3177 22.77C71.3177 23.05 71.4377 23.285 71.6777 23.475C71.9277 23.655 72.2877 23.795 72.7577 23.895C73.2277 23.985 73.7927 24.03 74.4527 24.03C75.1327 24.03 75.7027 23.985 76.1627 23.895C76.6327 23.795 76.9877 23.655 77.2277 23.475C77.4677 23.285 77.5877 23.05 77.5877 22.77C77.5877 22.49 77.4677 22.26 77.2277 22.08C76.9877 21.89 76.6327 21.75 76.1627 21.66C75.7027 21.56 75.1327 21.51 74.4527 21.51ZM74.4827 11.76C75.4827 11.76 76.3477 11.865 77.0777 12.075C77.8077 12.275 78.3677 12.57 78.7577 12.96C79.1577 13.34 79.3577 13.8 79.3577 14.34C79.3577 14.88 79.1577 15.345 78.7577 15.735C78.3677 16.115 77.8077 16.41 77.0777 16.62C76.3477 16.82 75.4827 16.92 74.4827 16.92C73.4827 16.92 72.6127 16.82 71.8727 16.62C71.1427 16.41 70.5777 16.115 70.1777 15.735C69.7877 15.345 69.5927 14.88 69.5927 14.34C69.5927 13.8 69.7877 13.34 70.1777 12.96C70.5777 12.57 71.1427 12.275 71.8727 12.075C72.6127 11.865 73.4827 11.76 74.4827 11.76ZM74.4827 12.96C73.8027 12.96 73.2177 13.015 72.7277 13.125C72.2377 13.235 71.8627 13.39 71.6027 13.59C71.3427 13.79 71.2127 14.04 71.2127 14.34C71.2127 14.63 71.3427 14.88 71.6027 15.09C71.8627 15.29 72.2377 15.445 72.7277 15.555C73.2177 15.665 73.8027 15.72 74.4827 15.72C75.1627 15.72 75.7427 15.665 76.2227 15.555C76.7127 15.445 77.0877 15.29 77.3477 15.09C77.6077 14.88 77.7377 14.63 77.7377 14.34C77.7377 14.04 77.6077 13.79 77.3477 13.59C77.0877 13.39 76.7127 13.235 76.2227 13.125C75.7427 13.015 75.1627 12.96 74.4827 12.96ZM85.7765 12.525C86.4565 12.525 87.0565 12.725 87.5765 13.125C88.0965 13.525 88.5065 14.085 88.8065 14.805C89.1065 15.525 89.2565 16.375 89.2565 17.355C89.2565 18.345 89.1065 19.205 88.8065 19.935C88.5065 20.655 88.0965 21.215 87.5765 21.615C87.0565 22.005 86.4565 22.2 85.7765 22.2C85.1065 22.2 84.5065 22.005 83.9765 21.615C83.4565 21.215 83.0465 20.655 82.7465 19.935C82.4565 19.205 82.3115 18.345 82.3115 17.355C82.3115 16.375 82.4565 15.525 82.7465 14.805C83.0465 14.085 83.4565 13.525 83.9765 13.125C84.5065 12.725 85.1065 12.525 85.7765 12.525ZM85.7765 13.95C85.3865 13.95 85.0415 14.085 84.7415 14.355C84.4515 14.625 84.2215 15.015 84.0515 15.525C83.8915 16.035 83.8115 16.645 83.8115 17.355C83.8115 18.075 83.8915 18.69 84.0515 19.2C84.2215 19.71 84.4515 20.105 84.7415 20.385C85.0415 20.655 85.3865 20.79 85.7765 20.79C86.1765 20.79 86.5215 20.655 86.8115 20.385C87.1115 20.105 87.3415 19.71 87.5015 19.2C87.6715 18.69 87.7565 18.075 87.7565 17.355C87.7565 16.645 87.6715 16.035 87.5015 15.525C87.3415 15.015 87.1115 14.625 86.8115 14.355C86.5215 14.085 86.1765 13.95 85.7765 13.95ZM91.8965 11.52H93.4715V25.26H91.8965V11.52ZM88.7615 16.62H92.5715V17.895H88.7615V16.62ZM99.1253 12.66H100.4V14.91C100.4 15.7 100.31 16.48 100.13 17.25C99.9603 18.01 99.7103 18.72 99.3803 19.38C99.0603 20.04 98.6653 20.63 98.1953 21.15C97.7253 21.66 97.1953 22.065 96.6053 22.365L95.6603 21.09C96.1903 20.83 96.6703 20.485 97.1003 20.055C97.5303 19.615 97.8953 19.12 98.1953 18.57C98.4953 18.01 98.7253 17.42 98.8853 16.8C99.0453 16.17 99.1253 15.54 99.1253 14.91V12.66ZM99.4103 12.66H100.685V14.91C100.685 15.52 100.76 16.125 100.91 16.725C101.06 17.315 101.28 17.88 101.57 18.42C101.87 18.95 102.225 19.425 102.635 19.845C103.045 20.265 103.505 20.6 104.015 20.85L103.055 22.11C102.485 21.81 101.975 21.415 101.525 20.925C101.085 20.425 100.705 19.855 100.385 19.215C100.075 18.575 99.8353 17.89 99.6653 17.16C99.4953 16.43 99.4103 15.68 99.4103 14.91V12.66ZM104.93 11.535H106.505V25.245H104.93V11.535ZM106.16 16.95H108.635V18.27H106.16V16.95ZM116.989 15.21H120.319V16.485H116.989V15.21ZM119.464 11.535H121.039V21.555H119.464V11.535ZM112.159 23.685H121.399V24.96H112.159V23.685ZM112.159 20.685H113.734V24.39H112.159V20.685ZM113.029 13.275H114.319V14.28C114.319 15.12 114.164 15.92 113.854 16.68C113.554 17.43 113.119 18.085 112.549 18.645C111.979 19.205 111.289 19.63 110.479 19.92L109.669 18.675C110.209 18.485 110.684 18.24 111.094 17.94C111.514 17.64 111.869 17.295 112.159 16.905C112.449 16.515 112.664 16.095 112.804 15.645C112.954 15.195 113.029 14.74 113.029 14.28V13.275ZM113.344 13.275H114.619V14.265C114.619 14.835 114.744 15.39 114.994 15.93C115.244 16.47 115.609 16.955 116.089 17.385C116.569 17.815 117.154 18.15 117.844 18.39L117.064 19.62C116.274 19.34 115.599 18.935 115.039 18.405C114.489 17.865 114.069 17.24 113.779 16.53C113.489 15.81 113.344 15.055 113.344 14.265V13.275ZM110.134 12.57H117.469V13.83H110.134V12.57Z" fill="white"/>
<path d="M17.025 17.65L17.975 14.975H18.025L18.975 17.65H17.025ZM24 23.05C24.7333 22.7 25.471 22.4373 26.213 22.262C26.955 22.0867 27.7173 21.9993 28.5 22C29.1 22 29.6877 22.05 30.263 22.15C30.8383 22.25 31.4173 22.4 32 22.6V12.7C31.45 12.4667 30.879 12.2917 30.287 12.175C29.695 12.0583 29.0993 12 28.5 12C27.7167 12 26.9417 12.1 26.175 12.3C25.4083 12.5 24.6833 12.8 24 13.2V23.05ZM16.7 18.575H19.3L19.775 19.9C19.8083 20 19.8667 20.0793 19.95 20.138C20.0333 20.1967 20.1333 20.2257 20.25 20.225C20.4333 20.225 20.5793 20.15 20.688 20C20.7967 19.85 20.8173 19.6917 20.75 19.525L18.7 14.125C18.6667 14.025 18.6043 13.9417 18.513 13.875C18.4217 13.8083 18.3173 13.775 18.2 13.775H17.8C17.6833 13.775 17.5793 13.8083 17.488 13.875C17.3967 13.9417 17.334 14.025 17.3 14.125L15.25 19.525C15.1833 19.6917 15.2043 19.85 15.313 20C15.4217 20.15 15.5673 20.225 15.75 20.225C15.8667 20.225 15.971 20.196 16.063 20.138C16.155 20.08 16.2173 19.9923 16.25 19.875L16.7 18.575ZM23 25.475C22.7667 25.475 22.5457 25.4457 22.337 25.387C22.1283 25.3283 21.9327 25.2493 21.75 25.15C21.1 24.7667 20.4167 24.4793 19.7 24.288C18.9833 24.0967 18.25 24.0007 17.5 24C16.8 24 16.1127 24.0917 15.438 24.275C14.7633 24.4583 14.1173 24.7167 13.5 25.05C13.15 25.2333 12.8127 25.225 12.488 25.025C12.1633 24.825 12.0007 24.5333 12 24.15V12.1C12 11.9167 12.046 11.7417 12.138 11.575C12.23 11.4083 12.3673 11.2833 12.55 11.2C13.3333 10.8167 14.1377 10.5207 14.963 10.312C15.7883 10.1033 16.634 9.99934 17.5 10C18.4667 10 19.4127 10.125 20.338 10.375C21.2633 10.625 22.1507 11 23 11.5C23.85 11 24.7377 10.625 25.663 10.375C26.5883 10.125 27.534 10 28.5 10C29.3667 10 30.2127 10.1043 31.038 10.313C31.8633 10.5217 32.6673 10.8173 33.45 11.2C33.6333 11.2833 33.771 11.4083 33.863 11.575C33.955 11.7417 34.0007 11.9167 34 12.1V24.15C34 24.5333 33.8377 24.825 33.513 25.025C33.1883 25.225 32.8507 25.2333 32.5 25.05C31.8833 24.7167 31.2377 24.4583 30.563 24.275C29.8883 24.0917 29.2007 24 28.5 24C27.75 24 27.0167 24.096 26.3 24.288C25.5833 24.48 24.9 24.7673 24.25 25.15C24.0667 25.25 23.871 25.3293 23.663 25.388C23.455 25.4467 23.234 25.4757 23 25.475ZM25 14.775C25 14.625 25.0543 14.471 25.163 14.313C25.2717 14.155 25.3923 14.0507 25.525 14C26.0083 13.8333 26.4917 13.7083 26.975 13.625C27.4583 13.5417 27.9667 13.5 28.5 13.5C28.8333 13.5 29.1627 13.521 29.488 13.563C29.8133 13.605 30.134 13.659 30.45 13.725C30.6 13.7583 30.7293 13.8417 30.838 13.975C30.9467 14.1083 31.0007 14.2583 31 14.425C31 14.7083 30.9083 14.9167 30.725 15.05C30.5417 15.1833 30.3083 15.2167 30.025 15.15C29.7917 15.1 29.546 15.0627 29.288 15.038C29.03 15.0133 28.7673 15.0007 28.5 15C28.0667 15 27.6417 15.0417 27.225 15.125C26.8083 15.2083 26.4083 15.3167 26.025 15.45C25.725 15.5667 25.4793 15.5583 25.288 15.425C25.0967 15.2917 25.0007 15.075 25 14.775ZM25 20.275C25 20.125 25.0543 19.971 25.163 19.813C25.2717 19.655 25.3923 19.5507 25.525 19.5C26.0083 19.3333 26.4917 19.2083 26.975 19.125C27.4583 19.0417 27.9667 19 28.5 19C28.8333 19 29.1627 19.021 29.488 19.063C29.8133 19.105 30.134 19.159 30.45 19.225C30.6 19.2583 30.7293 19.3417 30.838 19.475C30.9467 19.6083 31.0007 19.7583 31 19.925C31 20.2083 30.9083 20.4167 30.725 20.55C30.5417 20.6833 30.3083 20.7167 30.025 20.65C29.7917 20.6 29.546 20.5627 29.288 20.538C29.03 20.5133 28.7673 20.5007 28.5 20.5C28.0667 20.5 27.6417 20.5377 27.225 20.613C26.8083 20.6883 26.4083 20.7923 26.025 20.925C25.725 21.0417 25.4793 21.0377 25.288 20.913C25.0967 20.7883 25.0007 20.5757 25 20.275ZM25 17.525C25 17.375 25.0543 17.221 25.163 17.063C25.2717 16.905 25.3923 16.8007 25.525 16.75C26.0083 16.5833 26.4917 16.4583 26.975 16.375C27.4583 16.2917 27.9667 16.25 28.5 16.25C28.8333 16.25 29.1627 16.271 29.488 16.313C29.8133 16.355 30.134 16.409 30.45 16.475C30.6 16.5083 30.7293 16.5917 30.838 16.725C30.9467 16.8583 31.0007 17.0083 31 17.175C31 17.4583 30.9083 17.6667 30.725 17.8C30.5417 17.9333 30.3083 17.9667 30.025 17.9C29.7917 17.85 29.546 17.8127 29.288 17.788C29.03 17.7633 28.7673 17.7507 28.5 17.75C28.0667 17.75 27.6417 17.7917 27.225 17.875C26.8083 17.9583 26.4083 18.0667 26.025 18.2C25.725 18.3167 25.4793 18.3083 25.288 18.175C25.0967 18.0417 25.0007 17.825 25 17.525Z" fill="white"/>
</svg>
