<svg width="111" height="36" viewBox="0 0 111 36" fill="none" xmlns="http://www.w3.org/2000/svg">
<rect width="111" height="36" rx="5" fill="#43CD91"/>
<path d="M48.275 13.89H51.74V15.15H48.275V13.89ZM48.155 16.74H51.635V18.015H48.155V16.74ZM51.47 11.535H53.045V19.59H51.47V11.535ZM47.105 12.51H48.785C48.785 13.71 48.54 14.785 48.05 15.735C47.56 16.675 46.84 17.48 45.89 18.15C44.95 18.82 43.805 19.35 42.455 19.74L41.84 18.495C43 18.165 43.97 17.745 44.75 17.235C45.54 16.715 46.13 16.12 46.52 15.45C46.91 14.77 47.105 14.035 47.105 13.245V12.51ZM42.56 12.51H48.2V13.785H42.56V12.51ZM48.56 19.755C49.49 19.755 50.295 19.865 50.975 20.085C51.655 20.305 52.18 20.615 52.55 21.015C52.93 21.415 53.12 21.895 53.12 22.455C53.12 23.015 52.93 23.5 52.55 23.91C52.18 24.31 51.655 24.62 50.975 24.84C50.295 25.06 49.49 25.17 48.56 25.17C47.64 25.17 46.835 25.06 46.145 24.84C45.455 24.62 44.92 24.31 44.54 23.91C44.16 23.5 43.97 23.015 43.97 22.455C43.97 21.895 44.16 21.415 44.54 21.015C44.92 20.615 45.455 20.305 46.145 20.085C46.835 19.865 47.64 19.755 48.56 19.755ZM48.56 20.985C47.94 20.985 47.4 21.045 46.94 21.165C46.49 21.275 46.14 21.44 45.89 21.66C45.65 21.88 45.53 22.145 45.53 22.455C45.53 22.775 45.65 23.045 45.89 23.265C46.14 23.485 46.49 23.655 46.94 23.775C47.4 23.885 47.94 23.94 48.56 23.94C49.18 23.94 49.715 23.885 50.165 23.775C50.615 23.655 50.96 23.485 51.2 23.265C51.45 23.045 51.575 22.775 51.575 22.455C51.575 22.145 51.45 21.88 51.2 21.66C50.96 21.44 50.615 21.275 50.165 21.165C49.715 21.045 49.18 20.985 48.56 20.985ZM65.6738 11.52H67.1738V25.23H65.6738V11.52ZM60.8888 16.35H63.3638V17.625H60.8888V16.35ZM62.9288 11.805H64.3988V24.57H62.9288V11.805ZM58.1288 13.695H59.3138V15.3C59.3138 16.05 59.2488 16.795 59.1188 17.535C58.9988 18.265 58.8088 18.95 58.5488 19.59C58.2988 20.23 57.9788 20.81 57.5888 21.33C57.1988 21.84 56.7438 22.255 56.2238 22.575L55.2638 21.42C55.9238 21.01 56.4638 20.485 56.8838 19.845C57.3038 19.195 57.6138 18.48 57.8138 17.7C58.0238 16.91 58.1288 16.11 58.1288 15.3V13.695ZM58.4588 13.695H59.6438V15.3C59.6438 16.08 59.7438 16.845 59.9438 17.595C60.1438 18.345 60.4488 19.025 60.8588 19.635C61.2788 20.235 61.8088 20.725 62.4488 21.105L61.5188 22.245C60.8288 21.825 60.2588 21.26 59.8088 20.55C59.3588 19.83 59.0188 19.02 58.7888 18.12C58.5688 17.22 58.4588 16.28 58.4588 15.3V13.695ZM55.6988 13.02H61.8938V14.31H55.6988V13.02ZM70.8327 16.02H80.2527V17.28H70.8327V16.02ZM70.8327 12.195H72.3927V16.605H70.8327V12.195ZM69.2877 19.035H81.6777V20.325H69.2877V19.035ZM72.3177 19.515H73.8927V25.245H72.3177V19.515ZM77.0727 19.515H78.6327V25.245H77.0727V19.515ZM88.3965 12.405H89.7615V13.425C89.7615 14.025 89.6665 14.6 89.4765 15.15C89.2965 15.69 89.0365 16.2 88.6965 16.68C88.3565 17.15 87.9515 17.575 87.4815 17.955C87.0215 18.335 86.5115 18.66 85.9515 18.93C85.3915 19.19 84.8065 19.385 84.1965 19.515L83.5065 18.21C84.0465 18.11 84.5615 17.955 85.0515 17.745C85.5415 17.525 85.9915 17.26 86.4015 16.95C86.8115 16.63 87.1615 16.285 87.4515 15.915C87.7515 15.535 87.9815 15.135 88.1415 14.715C88.3115 14.285 88.3965 13.855 88.3965 13.425V12.405ZM88.6965 12.405H90.0615V13.425C90.0615 13.865 90.1415 14.295 90.3015 14.715C90.4715 15.135 90.7065 15.535 91.0065 15.915C91.3065 16.295 91.6615 16.64 92.0715 16.95C92.4815 17.26 92.9315 17.525 93.4215 17.745C93.9115 17.955 94.4265 18.11 94.9665 18.21L94.2765 19.515C93.6665 19.385 93.0815 19.19 92.5215 18.93C91.9615 18.66 91.4465 18.335 90.9765 17.955C90.5165 17.575 90.1165 17.15 89.7765 16.68C89.4365 16.2 89.1715 15.69 88.9815 15.15C88.7915 14.6 88.6965 14.025 88.6965 13.425V12.405ZM83.0865 22.17H95.5065V23.475H83.0865V22.17Z" fill="white"/>
<path d="M32 11H14C13.4696 11 12.9609 11.2107 12.5858 11.5858C12.2107 11.9609 12 12.4696 12 13V25C12 25.5304 12.2107 26.0391 12.5858 26.4142C12.9609 26.7893 13.4696 27 14 27H32C32.5304 27 33.0391 26.7893 33.4142 26.4142C33.7893 26.0391 34 25.5304 34 25V13C34 12.4696 33.7893 11.9609 33.4142 11.5858C33.0391 11.2107 32.5304 11 32 11ZM14 13H22V25H14V13ZM32 25H23V13H32.003L32 25ZM31 20.5C31 20.225 30.775 20 30.5 20H29.5C29.225 20 29 20.225 29 20.5V23.5C29 23.775 29.225 24 29.5 24H30.5C30.775 24 31 23.775 31 23.5V20.5ZM28 14.5C28 14.225 27.775 14 27.5 14H24.5C24.225 14 24 14.225 24 14.5V19.5C24 19.775 24.225 20 24.5 20H27.5C27.775 20 28 19.775 28 19.5V14.5ZM29.5 17H30.5C30.775 17 31 16.775 31 16.5C31 16.225 30.775 16 30.5 16H29.5C29.225 16 29 16.225 29 16.5C29 16.775 29.225 17 29.5 17ZM29.5 19H30.5C30.775 19 31 18.775 31 18.5C31 18.225 30.775 18 30.5 18H29.5C29.225 18 29 18.225 29 18.5C29 18.775 29.225 19 29.5 19ZM24.5 22H27.5C27.775 22 28 21.775 28 21.5C28 21.225 27.775 21 27.5 21H24.5C24.225 21 24 21.225 24 21.5C24 21.775 24.225 22 24.5 22ZM27.5 23H24.5C24.225 23 24 23.225 24 23.5C24 23.775 24.225 24 24.5 24H27.5C27.775 24 28 23.775 28 23.5C28 23.225 27.775 23 27.5 23ZM29.5 15H30.5C30.775 15 31 14.775 31 14.5C31 14.225 30.775 14 30.5 14H29.5C29.225 14 29 14.225 29 14.5C29 14.775 29.225 15 29.5 15ZM21 14.5C21 14.225 20.775 14 20.5 14H15.5C15.225 14 15 14.225 15 14.5V17.5C15 17.775 15.225 18 15.5 18H20.5C20.775 18 21 17.775 21 17.5V14.5ZM20.501 21H15.501C15.227 21 15.001 21.225 15.001 21.5C15.001 21.775 15.227 22 15.501 22H20.501C20.775 22 21 21.775 21 21.5C21 21.225 20.775 21 20.501 21ZM20.501 19H15.501C15.227 19 15.001 19.225 15.001 19.5C15.001 19.775 15.227 20 15.501 20H20.501C20.775 20 21 19.775 21 19.5C21 19.225 20.775 19 20.501 19ZM20.501 23H15.501C15.227 23 15.001 23.225 15.001 23.5C15.001 23.775 15.227 24 15.501 24H20.501C20.775 24 21 23.775 21 23.5C21 23.225 20.775 23 20.501 23Z" fill="white"/>
</svg>
