<svg width="43" height="30" viewBox="0 0 43 30" fill="none" xmlns="http://www.w3.org/2000/svg">
<path d="M9.82159 14.8304L11.6784 9.64459H11.7761L13.6329 14.8304H9.82159ZM23.4545 25.2988C24.8879 24.6203 26.3297 24.1111 27.7799 23.7712C29.2302 23.4313 30.7202 23.262 32.25 23.2633C33.4227 23.2633 34.5713 23.3602 35.6959 23.5541C36.8204 23.748 37.952 24.0388 39.0909 24.4265V5.23425C38.0159 4.78191 36.8999 4.44265 35.7428 4.21648C34.5857 3.99031 33.4214 3.87722 32.25 3.87722C30.7189 3.87722 29.2042 4.07108 27.7057 4.45881C26.2072 4.84653 24.7901 5.42811 23.4545 6.20355V25.2988ZM9.18636 16.6236H14.2682L15.1966 19.1922C15.2617 19.3861 15.3758 19.5399 15.5386 19.6536C15.7015 19.7674 15.897 19.8236 16.125 19.8223C16.4833 19.8223 16.7687 19.6769 16.9811 19.3861C17.1935 19.0953 17.2339 18.7884 17.1023 18.4653L13.0954 7.99677C13.0303 7.80291 12.9085 7.64136 12.7299 7.51212C12.5514 7.38287 12.3475 7.31825 12.1182 7.31825H11.3364C11.1083 7.31825 10.9051 7.38287 10.7265 7.51212C10.548 7.64136 10.4255 7.80291 10.3591 7.99677L6.35227 18.4653C6.22197 18.7884 6.26301 19.0953 6.47541 19.3861C6.6878 19.6769 6.97251 19.8223 7.32954 19.8223C7.55757 19.8223 7.7615 19.7661 7.94132 19.6536C8.12113 19.5412 8.24297 19.3712 8.30682 19.1438L9.18636 16.6236ZM21.5 30C21.0439 30 20.612 29.9431 20.2041 29.8294C19.7963 29.7156 19.4138 29.5625 19.0568 29.3699C17.7864 28.6268 16.4508 28.0698 15.05 27.6988C13.6492 27.3279 12.2159 27.1418 10.75 27.1405C9.38181 27.1405 8.03839 27.3182 6.71973 27.6736C5.40106 28.0291 4.13842 28.5299 2.93182 29.1761C2.24773 29.5315 1.58839 29.5153 0.953818 29.1276C0.319242 28.7399 0.00130303 28.1745 0 27.4313V4.07108C0 3.71567 0.0899091 3.37642 0.269727 3.05331C0.449545 2.73021 0.717969 2.48789 1.075 2.32634C2.60606 1.5832 4.17817 1.00937 5.79132 0.604852C7.40447 0.200329 9.05736 -0.00128623 10.75 6.17392e-06C12.6394 6.17392e-06 14.4884 0.242332 16.297 0.726984C18.1056 1.21164 19.8399 1.93861 21.5 2.90792C23.1614 1.93861 24.8963 1.21164 26.7049 0.726984C28.5136 0.242332 30.3619 6.17392e-06 32.25 6.17392e-06C33.9439 6.17392e-06 35.5975 0.202268 37.2106 0.606791C38.8238 1.01131 40.3952 1.5845 41.925 2.32634C42.2833 2.48789 42.5524 2.73021 42.7322 3.05331C42.912 3.37642 43.0013 3.71567 43 4.07108V27.4313C43 28.1745 42.6827 28.7399 42.0481 29.1276C41.4135 29.5153 40.7536 29.5315 40.0682 29.1761C38.8629 28.5299 37.6009 28.0291 36.2822 27.6736C34.9635 27.3182 33.6195 27.1405 32.25 27.1405C30.7841 27.1405 29.3507 27.3266 27.95 27.6988C26.5492 28.0711 25.2136 28.6281 23.9432 29.3699C23.5848 29.5638 23.2024 29.7176 22.7959 29.8313C22.3893 29.945 21.9574 30.0013 21.5 30ZM25.4091 9.25686C25.4091 8.96607 25.5153 8.66753 25.7277 8.36123C25.9401 8.05492 26.1759 7.85266 26.4352 7.75444C27.3799 7.43134 28.3246 7.18901 29.2693 7.02746C30.214 6.86591 31.2076 6.78514 32.25 6.78514C32.9015 6.78514 33.5452 6.82585 34.1811 6.90727C34.817 6.98869 35.4437 7.09338 36.0614 7.22132C36.3545 7.28594 36.6073 7.44749 36.8197 7.70598C37.0321 7.96446 37.1377 8.25525 37.1364 8.57835C37.1364 9.12762 36.9572 9.5315 36.5989 9.78998C36.2405 10.0485 35.7845 10.1131 35.2307 9.98384C34.7746 9.88691 34.2944 9.81454 33.7902 9.76672C33.2859 9.7189 32.7725 9.69434 32.25 9.69305C31.403 9.69305 30.5723 9.77383 29.7579 9.93538C28.9436 10.0969 28.1617 10.3069 27.4125 10.5654C26.8261 10.7916 26.346 10.7754 25.972 10.517C25.598 10.2585 25.4104 9.83845 25.4091 9.25686ZM25.4091 19.9192C25.4091 19.6284 25.5153 19.3299 25.7277 19.0236C25.9401 18.7173 26.1759 18.515 26.4352 18.4168C27.3799 18.0937 28.3246 17.8514 29.2693 17.6898C30.214 17.5283 31.2076 17.4475 32.25 17.4475C32.9015 17.4475 33.5452 17.4882 34.1811 17.5696C34.817 17.651 35.4437 17.7557 36.0614 17.8837C36.3545 17.9483 36.6073 18.1098 36.8197 18.3683C37.0321 18.6268 37.1377 18.9176 37.1364 19.2407C37.1364 19.79 36.9572 20.1938 36.5989 20.4523C36.2405 20.7108 35.7845 20.7754 35.2307 20.6462C34.7746 20.5493 34.2944 20.4769 33.7902 20.4291C33.2859 20.3812 32.7725 20.3567 32.25 20.3554C31.403 20.3554 30.5723 20.4284 29.7579 20.5745C28.9436 20.7205 28.1617 20.9221 27.4125 21.1793C26.8261 21.4055 26.346 21.3977 25.972 21.156C25.598 20.9144 25.4104 20.5021 25.4091 19.9192ZM25.4091 14.588C25.4091 14.2972 25.5153 13.9987 25.7277 13.6924C25.9401 13.3861 26.1759 13.1838 26.4352 13.0856C27.3799 12.7625 28.3246 12.5202 29.2693 12.3586C30.214 12.1971 31.2076 12.1163 32.25 12.1163C32.9015 12.1163 33.5452 12.157 34.1811 12.2384C34.817 12.3199 35.4437 12.4246 36.0614 12.5525C36.3545 12.6171 36.6073 12.7787 36.8197 13.0372C37.0321 13.2956 37.1377 13.5864 37.1364 13.9095C37.1364 14.4588 36.9572 14.8627 36.5989 15.1212C36.2405 15.3796 35.7845 15.4443 35.2307 15.315C34.7746 15.2181 34.2944 15.1457 33.7902 15.0979C33.2859 15.0501 32.7725 15.0255 32.25 15.0242C31.403 15.0242 30.5723 15.105 29.7579 15.2666C28.9436 15.4281 28.1617 15.6381 27.4125 15.8966C26.8261 16.1228 26.346 16.1066 25.972 15.8481C25.598 15.5897 25.4104 15.1696 25.4091 14.588Z" fill="#43CD91"/>
</svg>
